#!OML:ASF E:\emotionWalksFemale\Project 1\Capture day 1\Session 1\Female1.ASF
:FULLY-SPECIFIED
:DEGREES
1717
root 9.08563 15.3078 -36.7316 361.364 9.58275 -360.224
lowerback 6.11366 -0.6926 -0.224601
upperback -4.47217 -0.932099 0.218919
thorax -8.12834 -0.434913 0.47808
lowerneck 9.2587 -19.7802 -16.9389
upperneck 1.04781 -28.321 14.5758
head 3.2851 -14.4309 5.69962
rclavicle 1.11211e-014 -2.93207e-015
rhumerus -35.6038 4.30332 -85.4749
rradius 30.6786
rwrist 22.2977
rhand -2.7499 -51.141
rfingers 7.12502
rthumb 22.954 280.206
lclavicle 1.11211e-014 -2.93207e-015
lhumerus -43.1878 2.11675 86.5466
lradius 35.968
lwrist -13.6623
lhand -3.09792 -35.0161
lfingers 7.12502
lthumb 22.62 -6.32149
rfemur -1.67918 17.2633 31.7873
rtibia 22.6368
rfoot -23.6722 -29.7809
rtoes 12.0962
lfemur -15.8065 -16.5678 -17.1041
ltibia 33.3517
lfoot -21.6424 12.0158
ltoes -46.5267
1718
root 9.08802 15.3098 -36.7287 361.346 9.13545 -360.2
lowerback 6.28277 -0.724188 -0.271755
upperback -4.61539 -0.982492 0.183487
thorax -8.38176 -0.456681 0.477924
lowerneck 9.63113 -19.8573 -16.9818
upperneck 1.31928 -28.5099 14.5614
head 3.34367 -14.5403 5.7014
rclavicle -1.85429e-014 6.1002e-015
rhumerus -35.8344 4.79299 -85.7767
rradius 30.8048
rwrist 21.9488
rhand -2.28665 -51.2351
rfingers 7.12502
rthumb 23.3984 280.167
lclavicle -1.85429e-014 6.1002e-015
lhumerus -43.7475 1.96996 86.4851
lradius 35.7447
lwrist -14.3419
lhand -2.97675 -34.7642
lfingers 7.12502
lthumb 22.7363 -6.08388
rfemur -1.683 17.2483 31.7024
rtibia 22.679
rfoot -23.4134 -29.4825
rtoes 10.8979
lfemur -15.5873 -16.4917 -17.1636
ltibia 33.2356
lfoot -21.7859 12.2385
ltoes -45.9669
1719
root 9.08507 15.3112 -36.7215 361.363 8.64881 -360.279
lowerback 5.97717 -0.721453 -0.519505
upperback -4.54981 -0.990745 0.334538
thorax -8.12483 -0.443139 0.771603
lowerneck 9.71816 -19.947 -17.0707
upperneck 1.4048 -28.6514 14.433
head 3.36999 -14.6125 5.66131
rclavicle 3.07495e-015 -5.09386e-015
rhumerus -35.6562 5.32048 -85.8378
rradius 30.764
rwrist 21.7504
rhand -2.15167 -51.2783
rfingers 7.12502
rthumb 23.5279 280.141
lclavicle 3.07495e-015 -5.09386e-015
lhumerus -43.9408 2.05004 86.5153
lradius 35.6209
lwrist -14.3864
lhand -1.24699 -34.5659
lfingers 7.12502
lthumb 24.3955 -6.0989
rfemur -1.72402 17.3917 31.7641
rtibia 22.7297
rfoot -23.1578 -29.2835
rtoes 10.1623
lfemur -15.4204 -16.2864 -17.0863
ltibia 33.1327
lfoot -21.8706 12.5418
ltoes -46.3051
1720
root 9.07745 15.3101 -36.7219 361.319 8.26231 -360.283
lowerback 5.83526 -0.790737 -0.927801
upperback -4.42581 -1.1079 0.523348
thorax -7.89539 -0.473934 1.21021
lowerneck 9.74004 -20.1244 -17.3304
upperneck 1.47184 -28.9251 14.4186
head 3.46089 -14.7482 5.63757
rclavicle -2.09904e-014 8.05078e-015
rhumerus -35.46 6.01158 -85.9017
rradius 30.9682
rwrist 21.4179
rhand -2.11488 -51.5475
rfingers 7.12502
rthumb 23.5632 279.876
lclavicle -2.09904e-014 8.05078e-015
lhumerus -44.0951 2.2913 86.5581
lradius 35.619
lwrist -14.3227
lhand 0.112359 -34.4826
lfingers 7.12502
lthumb 25.698 -6.19736
rfemur -1.66529 17.6834 31.822
rtibia 22.7353
rfoot -23.0178 -29.2843
rtoes 9.79535
lfemur -15.2466 -16.1134 -17.0806
ltibia 33.0693
lfoot -21.9224 12.7485
ltoes -46.4623
1721
root 9.07212 15.3086 -36.7269 361.279 7.96754 -360.233
lowerback 6.01302 -0.9412 -1.09567
upperback -4.428 -1.3261 0.546044
thorax -7.9918 -0.569848 1.35956
lowerneck 9.6598 -20.1766 -17.4464
upperneck 1.53214 -29.002 14.3986
head 3.51535 -14.7828 5.6174
rclavicle 1.87417e-014 -8.49804e-015
rhumerus -35.4342 6.56728 -86.1792
rradius 31.18
rwrist 21.2747
rhand -2.05874 -51.9466
rfingers 7.12502
rthumb 23.6171 279.484
lclavicle 1.87417e-014 -8.49804e-015
lhumerus -44.528 2.46083 86.3676
lradius 35.7918
lwrist -14.109
lhand 0.454435 -35.0963
lfingers 7.12502
lthumb 26.0256 -6.85876
rfemur -1.62995 17.8549 31.7942
rtibia 22.7326
rfoot -22.7266 -29.2766
rtoes 9.03023
lfemur -15.1183 -16.0365 -17.1318
ltibia 33.0284
lfoot -21.945 12.9046
ltoes -46.2068
1722
root 9.06086 15.3128 -36.7166 361.579 7.59622 -360.254
lowerback 5.58468 -1.04406 -1.2578
upperback -4.49091 -1.47398 0.557693
thorax -7.80077 -0.635062 1.47193
lowerneck 9.54617 -20.2702 -17.4357
upperneck 1.8783 -29.1399 14.2764
head 3.6382 -14.8452 5.53246
rclavicle 1.79714e-014 7.05686e-015
rhumerus -35.3174 6.83891 -86.4492
rradius 31.1378
rwrist 21.3983
rhand -1.89966 -52.4513
rfingers 7.12502
rthumb 23.7696 278.999
lclavicle 1.79714e-014 7.05686e-015
lhumerus -44.859 2.51958 86.1323
lradius 35.7688
lwrist -13.8507
lhand 1.06203 -34.7542
lfingers 7.12502
lthumb 26.6072 -6.60361
rfemur -1.88666 18.2575 31.8124
rtibia 22.7235
rfoot -22.5407 -29.3344
rtoes 8.48785
lfemur -15.296 -15.769 -16.9747
ltibia 32.9911
lfoot -22.0617 13.0185
ltoes -46.228
1723
root 9.06243 15.3108 -36.7141 361.431 6.93972 -360.306
lowerback 5.62994 -1.03895 -1.19786
upperback -4.42008 -1.46612 0.501405
thorax -7.75405 -0.637257 1.37813
lowerneck 10.1599 -20.3393 -17.1995
upperneck 1.72415 -29.2866 14.358
head 3.50236 -14.9444 5.59564
rclavicle -9.4547e-015 6.95746e-016
rhumerus -35.1621 7.02081 -86.7233
rradius 31.1151
rwrist 21.4907
rhand -1.96319 -52.4473
rfingers 7.12502
rthumb 23.7087 278.995
lclavicle -9.4547e-015 6.95746e-016
lhumerus -45.0246 2.45302 85.9272
lradius 35.6393
lwrist -13.4669
lhand 1.37483 -34.6051
lfingers 7.12502
lthumb 26.9066 -6.50025
rfemur -1.69233 18.528 31.885
rtibia 22.6872
rfoot -22.33 -29.0646
rtoes 8.19825
lfemur -14.9552 -15.538 -17.0049
ltibia 32.9897
lfoot -22.2381 13.4625
ltoes -46.2201
1724
root 9.06683 15.3115 -36.709 361.392 6.24439 -360.398
lowerback 5.59134 -1.00522 -1.24566
upperback -4.42466 -1.41948 0.579594
thorax -7.73495 -0.609668 1.48064
lowerneck 9.95701 -20.4335 -17.4518
upperneck 1.93553 -29.4381 14.388
head 3.65921 -15.0112 5.56357
rclavicle 1.72228e-014 -1.31198e-014
rhumerus -35.1801 7.4554 -86.8847
rradius 31.2652
rwrist 21.3556
rhand -2.28162 -52.2138
rfingers 7.12502
rthumb 23.4033 279.189
lclavicle 1.72228e-014 -1.31198e-014
lhumerus -45.3924 2.40099 85.9332
lradius 35.7044
lwrist -13.0211
lhand 1.40978 -34.2662
lfingers 7.12502
lthumb 26.94 -6.16654
rfemur -1.6078 18.8331 31.9474
rtibia 22.6235
rfoot -22.0044 -28.7353
rtoes 8.01354
lfemur -14.7323 -15.3497 -16.9727
ltibia 33.0059
lfoot -22.2617 14.062
ltoes -46.3609
1725
root 9.0643 15.3101 -36.7142 361.307 5.89913 -360.539
lowerback 5.37846 -1.05938 -1.3495
upperback -4.19586 -1.48991 0.696486
thorax -7.35779 -0.64131 1.66062
lowerneck 9.95449 -20.5053 -17.5014
upperneck 1.63875 -29.5228 14.5954
head 3.62125 -15.0543 5.62301
rclavicle -2.13818e-014 5.66536e-015
rhumerus -34.7799 7.83914 -86.9677
rradius 31.3691
rwrist 21.1479
rhand -2.48737 -52.0862
rfingers 7.12502
rthumb 23.2059 279.292
lclavicle -2.13818e-014 5.66536e-015
lhumerus -45.4274 2.38667 85.949
lradius 35.838
lwrist -12.6307
lhand 1.11956 -34.1916
lfingers 7.12502
lthumb 26.6623 -6.04934
rfemur -1.54868 18.96 32.1022
rtibia 22.6106
rfoot -21.8867 -28.5461
rtoes 7.96018
lfemur -14.616 -15.176 -16.8323
ltibia 33.0379
lfoot -22.2659 14.2353
ltoes -46.4426
1726
root 9.0636 15.3097 -36.7185 361.262 5.41177 -360.567
lowerback 5.65087 -1.10913 -1.27471
upperback -4.27859 -1.55988 0.60966
thorax -7.60653 -0.678565 1.54433
lowerneck 10.1527 -20.5468 -17.3415
upperneck 1.83475 -29.6059 14.49
head 3.62556 -15.1032 5.58522
rclavicle -9.46945e-015 6.1996e-015
rhumerus -34.8626 8.06288 -87.3304
rradius 31.5285
rwrist 20.9696
rhand -2.41712 -52.0055
rfingers 7.12502
rthumb 23.2733 279.381
lclavicle -9.46945e-015 6.1996e-015
lhumerus -46.0175 2.21589 85.7582
lradius 35.9396
lwrist -12.8024
lhand -0.650484 -35.0177
lfingers 7.12502
lthumb 24.9672 -6.62889
rfemur -1.55896 18.9093 32.0654
rtibia 22.6256
rfoot -21.7758 -28.1635
rtoes 7.22461
lfemur -14.4928 -14.8682 -16.8201
ltibia 33.06
lfoot -22.4808 14.3022
ltoes -46.2522
1727
root 9.06456 15.3108 -36.7251 361.222 4.83807 -360.495
lowerback 5.82065 -1.11463 -1.30904
upperback -4.28693 -1.57974 0.51168
thorax -7.7156 -0.68806 1.4677
lowerneck 10.2859 -20.5642 -17.4535
upperneck 1.70122 -29.6728 14.8105
head 3.64176 -15.1457 5.68746
rclavicle -7.53518e-015 -5.8393e-016
rhumerus -34.8152 8.26669 -87.6351
rradius 31.7014
rwrist 20.6957
rhand -2.07818 -52.373
rfingers 7.12502
rthumb 23.5984 279.055
lclavicle -7.53518e-015 -5.8393e-016
lhumerus -46.5199 1.82524 85.8144
lradius 35.65
lwrist -14.2258
lhand -5.32384 -36.814
lfingers 7.12502
lthumb 20.4822 -7.87438
rfemur -1.58553 18.7682 31.8843
rtibia 22.6528
rfoot -21.6062 -27.627
rtoes 6.57917
lfemur -14.3445 -14.6085 -16.9378
ltibia 33.0818
lfoot -22.6537 14.4982
ltoes -45.9029
1728
root 9.06501 15.312 -36.732 361.18 4.3464 -360.426
lowerback 5.94701 -1.14255 -1.38691
upperback -4.2603 -1.6304 0.453541
thorax -7.75865 -0.710094 1.45939
lowerneck 10.2724 -20.6205 -17.5364
upperneck 1.8594 -29.7839 14.9297
head 3.73994 -15.2014 5.69598
rclavicle -5.20257e-015 1.11319e-014
rhumerus -34.7271 8.56006 -87.8955
rradius 31.9508
rwrist 20.3522
rhand -1.78733 -52.8939
rfingers 7.12502
rthumb 23.8774 278.57
lclavicle -5.20257e-015 1.11319e-014
lhumerus -46.7678 1.64616 85.7618
lradius 35.9219
lwrist -13.6379
lhand -5.76515 -36.6963
lfingers 7.12502
lthumb 20.0581 -7.71169
rfemur -1.58367 18.7958 31.7599
rtibia 22.679
rfoot -21.461 -27.2926
rtoes 6.26171
lfemur -14.2166 -14.3727 -17.0401
ltibia 33.1021
lfoot -22.7747 14.5985
ltoes -45.4171
1729
root 9.06576 15.3159 -36.736 361.255 3.96236 -360.388
lowerback 5.72665 -1.19932 -1.64206
upperback -4.165 -1.718 0.570595
thorax -7.51468 -0.740033 1.7282
lowerneck 10.1119 -20.7603 -17.6795
upperneck 2.39619 -30.0056 14.7205
head 3.9489 -15.301 5.56998
rclavicle 1.50208e-014 8.47242e-015
rhumerus -34.5487 9.0577 -87.9274
rradius 32.2491
rwrist 19.9357
rhand -1.68326 -53.2254
rfingers 7.12502
rthumb 23.9772 278.252
lclavicle 1.50208e-014 8.47242e-015
lhumerus -46.8905 1.72743 85.8784
lradius 36.1818
lwrist -13.2914
lhand -6.09284 -36.6574
lfingers 7.12502
lthumb 19.7431 -7.64008
rfemur -1.67132 19.0463 31.685
rtibia 22.6833
rfoot -21.4818 -27.1592
rtoes 6.2178
lfemur -14.2371 -14.1554 -17.0635
ltibia 33.1439
lfoot -23.0193 14.4718
ltoes -44.6464
1730
root 9.06695 15.3181 -36.7386 361.381 3.50709 -360.441
lowerback 5.36464 -1.23411 -1.78736
upperback -4.06305 -1.76261 0.689668
thorax -7.18582 -0.756907 1.92718
lowerneck 10.3016 -20.7861 -17.8008
upperneck 2.14901 -30.0653 14.8922
head 3.89891 -15.3407 5.64948
rclavicle -2.44893e-014 -6.4605e-015
rhumerus -34.2994 9.43524 -87.9428
rradius 32.3514
rwrist 19.787
rhand -1.85989 -52.8728
rfingers 7.12502
rthumb 23.8078 278.582
lclavicle -2.44893e-014 -6.4605e-015
lhumerus -46.9956 1.72385 85.9922
lradius 36.4003
lwrist -13.006
lhand -6.09423 -36.6211
lfingers 7.12502
lthumb 19.7418 -7.60359
rfemur -1.82774 19.2509 31.6663
rtibia 22.6596
rfoot -21.3657 -26.8941
rtoes 6.17399
lfemur -14.3057 -13.9089 -16.9825
ltibia 33.2068
lfoot -23.2393 14.5077
ltoes -44.2467
